<?xml version="1.0" encoding="utf-8"?>
<!-- Generator: Adobe Illustrator 24.1.1, SVG Export Plug-In . SVG Version: 6.00 Build 0)  -->
<svg version="1.1" id="Layer_1" xmlns="http://www.w3.org/2000/svg" xmlns:xlink="http://www.w3.org/1999/xlink" x="0px" y="0px"
	 viewBox="0 0 512 512" style="enable-background:new 0 0 512 512;" xml:space="preserve">
<g>
	<path d="M256,474.67c-8.83,0-16-7.17-16-16c0-8.33,6.51-15.31,14.84-15.92l0.18-0.02l0.98-0.06c8.83,0,16,7.17,16,16
		C272,467.5,264.83,474.67,256,474.67z"/>
	<path d="M160,512c-29.42,0-53.33-23.94-53.33-53.33V53.33C106.67,23.92,130.58,0,160,0h192c29.4,0,53.33,23.92,53.33,53.33v405.33
		c0,29.4-23.94,53.33-53.33,53.33H160z M128,458.67c0,17.65,14.35,32,32,32h192c17.65,0,32-14.35,32-32v-32H128V458.67z M384,405.33
		v-352c0-17.65-14.35-32-32-32H160c-17.65,0-32,14.35-32,32v352H384z"/>
</g>
</svg>
